<svg width="106" height="106" viewBox="0 0 106 106" fill="none" xmlns="http://www.w3.org/2000/svg">
<path d="M66.675 74.0833C68.7208 76.1291 72.0376 76.1291 74.0833 74.0833C76.1291 72.0376 76.1291 68.7208 74.0833 66.675L58.2083 50.8V31.75C58.2083 28.8275 55.8392 26.4583 52.9167 26.4583C49.9942 26.4583 47.625 28.8275 47.625 31.75V55.0333L66.675 74.0833ZM52.9167 105.833C45.5965 105.833 38.7174 104.444 32.2792 101.666C25.841 98.888 20.2406 95.1177 15.4781 90.3552C10.7156 85.5927 6.94531 79.9924 4.16719 73.5542C1.38906 67.116 0 60.2368 0 52.9167C0 45.5965 1.38906 38.7174 4.16719 32.2792C6.94531 25.841 10.7156 20.2406 15.4781 15.4781C20.2406 10.7156 25.841 6.94531 32.2792 4.16719C38.7174 1.38906 45.5965 0 52.9167 0C60.2368 0 67.116 1.38906 73.5542 4.16719C79.9924 6.94531 85.5927 10.7156 90.3552 15.4781C95.1177 20.2406 98.888 25.841 101.666 32.2792C104.444 38.7174 105.833 45.5965 105.833 52.9167C105.833 60.2368 104.444 67.116 101.666 73.5542C98.888 79.9924 95.1177 85.5927 90.3552 90.3552C85.5927 95.1177 79.9924 98.888 73.5542 101.666C67.116 104.444 60.2368 105.833 52.9167 105.833ZM52.9167 95.25C64.6465 95.25 74.6346 91.1269 82.8807 82.8807C91.1269 74.6346 95.25 64.6465 95.25 52.9167C95.25 41.1868 91.1269 31.1988 82.8807 22.9526C74.6346 14.7064 64.6465 10.5833 52.9167 10.5833C41.1868 10.5833 31.1988 14.7064 22.9526 22.9526C14.7064 31.1988 10.5833 41.1868 10.5833 52.9167C10.5833 64.6465 14.7064 74.6346 22.9526 82.8807C31.1988 91.1269 41.1868 95.25 52.9167 95.25Z" fill="black"/>
</svg>
